<svg width="25" height="36" viewBox="0 0 25 36" fill="none" xmlns="http://www.w3.org/2000/svg">
<g id="Group 1" opacity="0.47">
<path id="Vector" d="M14.6149 29.7117L10.255 29.6592C9.73828 29.6592 9.30925 30.0701 9.30055 30.5864L9.27409 32.7645C9.2567 34.4874 10.6315 35.8958 12.3559 35.9132C14.0808 35.9306 15.4903 34.5573 15.5081 32.8344L15.5342 30.6564C15.5342 30.14 15.1229 29.7117 14.6062 29.7026L14.6149 29.7117Z" fill="#6D6BD8"/>
<path id="Vector_2" d="M11.813 0.120191C5.73694 0.417566 0.728782 5.3685 0.370057 11.4303C0.151194 15.0866 1.58685 18.428 4.00342 20.781L4.03858 20.8247L4.87018 21.5508L8.3633 24.6035C8.73979 24.9359 9.22137 25.1109 9.72071 25.1109H15.0876C15.5866 25.1109 16.0681 24.9272 16.4446 24.6035L20.0606 21.437L20.1744 21.3408L20.6386 20.9297L20.6647 20.9122C23.0022 18.7079 24.4643 15.5939 24.4643 12.1475C24.4643 5.29849 18.721 -0.229727 11.8043 0.111421L11.813 0.120191ZM12.4083 6.51437C15.5166 6.51437 18.047 9.04231 18.047 12.1563C18.047 15.2703 15.5166 17.7895 12.4083 17.7895C9.30037 17.7895 6.77002 15.2615 6.77002 12.1563C6.77002 9.05104 9.30037 6.51437 12.4083 6.51437Z" fill="#6D6BD8"/>
</g>
</svg>
