<svg width="25" height="37" viewBox="0 0 25 37" fill="none" xmlns="http://www.w3.org/2000/svg">
<g id="Group 1" opacity="0.47">
<path id="Vector" d="M15.0458 30.5738L10.6859 30.5212C10.1692 30.5212 9.74015 30.9321 9.73146 31.4485L9.705 33.6265C9.68761 35.3495 11.0624 36.7579 12.7869 36.7753C14.5117 36.7927 15.9213 35.4194 15.939 33.6965L15.9651 31.5184C15.9651 31.0021 15.5538 30.5738 15.0371 30.5647L15.0458 30.5738Z" fill="#DE3E54"/>
<path id="Vector_2" d="M12.2439 0.982251C6.16785 1.27963 1.15969 6.23056 0.800966 12.2923C0.582102 15.9487 2.01776 19.2901 4.43433 21.6431L4.46948 21.6868L5.30109 22.4128L8.79421 25.4656C9.1707 25.798 9.65228 25.9729 10.1516 25.9729H15.5185C16.0175 25.9729 16.499 25.7892 16.8755 25.4656L20.4915 22.2991L20.6053 22.2029L21.0695 21.7918L21.0956 21.7743C23.4331 19.57 24.8952 16.456 24.8952 13.0096C24.8952 6.16055 19.1519 0.632334 12.2352 0.973481L12.2439 0.982251ZM12.8392 7.37643C15.9475 7.37643 18.4779 9.90437 18.4779 13.0184C18.4779 16.1323 15.9475 18.6515 12.8392 18.6515C9.73128 18.6515 7.20093 16.1236 7.20093 13.0184C7.20093 9.9131 9.73128 7.37643 12.8392 7.37643Z" fill="#DE3E54"/>
</g>
</svg>
